REM DIRINDEX 1\5,1\2\6,1\2\7,1\3\8,1\3\9,1\4\10,1\4\11,1\4\12
REM DIRNAME folder01,folder02,folder03,folder04,folder05,folder06,folder07,folder08,folder09,folder10,folder11,folder12
TITLE ""
FILE "EJE_DB3000_5th_4B_26.mp3" MP3
  TRACK 01 AUDIO
    TITLE "0:"
    INDEX 01 00:00:00
  TRACK 02 AUDIO
    TITLE "10:cjc026_09165"
    INDEX 01 00:00:05
  TRACK 03 AUDIO
    TITLE "0:"
    INDEX 01 00:01:01
  TRACK 04 AUDIO
    TITLE "11:cjc026_09166"
    INDEX 01 00:01:26
  TRACK 05 AUDIO
    TITLE "0:"
    INDEX 01 00:02:32
  TRACK 06 AUDIO
    TITLE "12:cjc026_09167"
    INDEX 01 00:02:59
  TRACK 07 AUDIO
    TITLE "0:"
    INDEX 01 00:03:53
  TRACK 08 AUDIO
    TITLE "10:cjc026_09168"
    INDEX 01 00:04:03
  TRACK 09 AUDIO
    TITLE "0:"
    INDEX 01 00:04:70
  TRACK 10 AUDIO
    TITLE "11:cjc026_09169"
    INDEX 01 00:05:18
  TRACK 11 AUDIO
    TITLE "0:"
    INDEX 01 00:06:04
  TRACK 12 AUDIO
    TITLE "12:cjc026_09170"
    INDEX 01 00:06:28
  TRACK 13 AUDIO
    TITLE "0:"
    INDEX 01 00:07:17
  TRACK 14 AUDIO
    TITLE "10:cjc026_09171"
    INDEX 01 00:07:43
  TRACK 15 AUDIO
    TITLE "0:"
    INDEX 01 00:08:54
  TRACK 16 AUDIO
    TITLE "11:cjc026_09172"
    INDEX 01 00:09:02
  TRACK 17 AUDIO
    TITLE "0:"
    INDEX 01 00:09:71
  TRACK 18 AUDIO
    TITLE "12:cjc026_09173"
    INDEX 01 00:10:21
  TRACK 19 AUDIO
    TITLE "0:"
    INDEX 01 00:11:35
  TRACK 20 AUDIO
    TITLE "10:cjc026_09174"
    INDEX 01 00:11:58
  TRACK 21 AUDIO
    TITLE "0:"
    INDEX 01 00:12:56
  TRACK 22 AUDIO
    TITLE "11:cjc026_09175"
    INDEX 01 00:13:06
  TRACK 23 AUDIO
    TITLE "0:"
    INDEX 01 00:14:23
  TRACK 24 AUDIO
    TITLE "12:cjc026_09176"
    INDEX 01 00:14:51
  TRACK 25 AUDIO
    TITLE "0:"
    INDEX 01 00:15:48
  TRACK 26 AUDIO
    TITLE "10:cjc026_09177"
    INDEX 01 00:15:74
  TRACK 27 AUDIO
    TITLE "0:"
    INDEX 01 00:17:04
  TRACK 28 AUDIO
    TITLE "11:cjc026_09178"
    INDEX 01 00:17:29
  TRACK 29 AUDIO
    TITLE "0:"
    INDEX 01 00:18:15
  TRACK 30 AUDIO
    TITLE "12:cjc026_09179"
    INDEX 01 00:18:41
  TRACK 31 AUDIO
    TITLE "0:"
    INDEX 01 00:19:46
  TRACK 32 AUDIO
    TITLE "10:cjc026_09180"
    INDEX 01 00:19:71
  TRACK 33 AUDIO
    TITLE "0:"
    INDEX 01 00:21:00
  TRACK 34 AUDIO
    TITLE "11:cjc026_09181"
    INDEX 01 00:21:25
  TRACK 35 AUDIO
    TITLE "0:"
    INDEX 01 00:22:25
  TRACK 36 AUDIO
    TITLE "12:cjc026_09182"
    INDEX 01 00:22:52
  TRACK 37 AUDIO
    TITLE "0:"
    INDEX 01 00:23:55
  TRACK 38 AUDIO
    TITLE "10:cjc026_09183"
    INDEX 01 00:24:06
  TRACK 39 AUDIO
    TITLE "0:"
    INDEX 01 00:25:09
  TRACK 40 AUDIO
    TITLE "11:cjc026_09184"
    INDEX 01 00:25:35
  TRACK 41 AUDIO
    TITLE "0:"
    INDEX 01 00:26:50
  TRACK 42 AUDIO
    TITLE "12:cjc026_09185"
    INDEX 01 00:27:02
  TRACK 43 AUDIO
    TITLE "0:"
    INDEX 01 00:28:06
  TRACK 44 AUDIO
    TITLE "10:cjc026_09186"
    INDEX 01 00:28:33
  TRACK 45 AUDIO
    TITLE "0:"
    INDEX 01 00:29:33
  TRACK 46 AUDIO
    TITLE "11:cjc026_09187"
    INDEX 01 00:29:58
  TRACK 47 AUDIO
    TITLE "0:"
    INDEX 01 00:30:69
  TRACK 48 AUDIO
    TITLE "12:cjc026_09188"
    INDEX 01 00:31:22
  TRACK 49 AUDIO
    TITLE "0:"
    INDEX 01 00:32:19
  TRACK 50 AUDIO
    TITLE "10:cjc026_09189"
    INDEX 01 00:32:47
  TRACK 51 AUDIO
    TITLE "0:"
    INDEX 01 00:33:46
  TRACK 52 AUDIO
    TITLE "11:cjc026_09190"
    INDEX 01 00:33:71
  TRACK 53 AUDIO
    TITLE "0:"
    INDEX 01 00:34:65
  TRACK 54 AUDIO
    TITLE "12:cjc026_09191"
    INDEX 01 00:35:15
  TRACK 55 AUDIO
    TITLE "0:"
    INDEX 01 00:36:15
  TRACK 56 AUDIO
    TITLE "10:cjc026_09192"
    INDEX 01 00:36:40
  TRACK 57 AUDIO
    TITLE "0:"
    INDEX 01 00:37:36
  TRACK 58 AUDIO
    TITLE "11:cjc026_09193"
    INDEX 01 00:37:61
  TRACK 59 AUDIO
    TITLE "0:"
    INDEX 01 00:38:55
  TRACK 60 AUDIO
    TITLE "12:cjc026_09194"
    INDEX 01 00:39:05
  TRACK 61 AUDIO
    TITLE "0:"
    INDEX 01 00:40:03
  TRACK 62 AUDIO
    TITLE "10:cjc026_09195"
    INDEX 01 00:40:28
  TRACK 63 AUDIO
    TITLE "0:"
    INDEX 01 00:41:24
  TRACK 64 AUDIO
    TITLE "11:cjc026_09196"
    INDEX 01 00:41:49
  TRACK 65 AUDIO
    TITLE "0:"
    INDEX 01 00:43:33
  TRACK 66 AUDIO
    TITLE "12:cjc026_09197"
    INDEX 01 00:43:60
  TRACK 67 AUDIO
    TITLE "0:"
    INDEX 01 00:44:56
  TRACK 68 AUDIO
    TITLE "10:cjc026_09198"
    INDEX 01 00:45:06
  TRACK 69 AUDIO
    TITLE "0:"
    INDEX 01 00:45:67
  TRACK 70 AUDIO
    TITLE "11:cjc026_09199"
    INDEX 01 00:46:19
  TRACK 71 AUDIO
    TITLE "0:"
    INDEX 01 00:47:11
  TRACK 72 AUDIO
    TITLE "12:cjc026_09200"
    INDEX 01 00:47:40
  TRACK 73 AUDIO
    TITLE "0:"
    INDEX 01 00:48:26
  TRACK 74 AUDIO
    TITLE "10:cjc026_09201"
    INDEX 01 00:48:53
  TRACK 75 AUDIO
    TITLE "0:"
    INDEX 01 00:49:51
  TRACK 76 AUDIO
    TITLE "11:cjc026_09202"
    INDEX 01 00:50:01
  TRACK 77 AUDIO
    TITLE "0:"
    INDEX 01 00:51:11
  TRACK 78 AUDIO
    TITLE "12:cjc026_09203"
    INDEX 01 00:51:36
  TRACK 79 AUDIO
    TITLE "0:"
    INDEX 01 00:52:36
  TRACK 80 AUDIO
    TITLE "10:cjc026_09204"
    INDEX 01 00:52:63
  TRACK 81 AUDIO
    TITLE "0:"
    INDEX 01 00:53:74
  TRACK 82 AUDIO
    TITLE "11:cjc026_09205"
    INDEX 01 00:54:25
  TRACK 83 AUDIO
    TITLE "0:"
    INDEX 01 00:55:28
  TRACK 84 AUDIO
    TITLE "12:cjc026_09206"
    INDEX 01 00:55:59
  TRACK 85 AUDIO
    TITLE "0:"
    INDEX 01 00:56:71
